<!-- <svg aria-hidden="true" overflow="hidden" style="position:absolute;width:0;height:0">
  <defs>
  
    <symbol id="icon-logo" viewBox="0 0 74 32">
      <path d="m12.93 2.4-.43.01a6 6 0 0 0-4.2 2.1c-1.16 1.36-1.44 2.8-1.43 4.55h-3.1l-.43-.01a6 6 0 0 0-1.21.05q-.35.06-.6.32c-.27.3-.28.66-.26 1.04q.05.9.13 1.8l.08.98L2 19.9l.25 3.22.03.48c.04.57.07 1.16.22 1.7a5.2 5.2 0 0 0 3.72 3.63c.7.17 1.5.15 2.26.13l.66-.01h7.84l.61.01a5.3 5.3 0 0 0 4.44-1.45c.6-.6 1.09-1.4 1.3-2.22.16-.63.2-1.32.24-2l.04-.63.34-4.42.43-5.42.08-.8q.1-.9.11-1.77c0-.35-.08-.69-.33-.95a1.3 1.3 0 0 0-.71-.31 6 6 0 0 0-1.15-.04h-.42l-2.94.02h-.04c.02-1.88-.4-3.48-1.74-4.85a6 6 0 0 0-4.3-1.84zm5.92 10.68h.05l.01.01v.02q.02.03.02.07c-.02 2.3-.63 5.25-2.26 6.93-1.51 1.56-3.85 2.32-6 2.36a17 17 0 0 1 5.04-5.53l.52-.37c.16-.12.38-.28.4-.5.03-.2-.08-.36-.2-.5-.18-.1-.31-.15-.52-.09-.29.08-.57.3-.84.49l-.2.15a18 18 0 0 0-5.15 5.7 7.3 7.3 0 0 1 1.5-4.85c1.7-2.22 4.93-3.52 7.63-3.9zM2.43 10.22h20.99q-.11 1.06-.17 2.13l-.09 1.19-.56 7.08-.22 2.61-.02.34q-.04.67-.16 1.35a4 4 0 0 1-.79 1.63 4 4 0 0 1-2.55 1.34q-.78.05-1.58.02h-9a9 9 0 0 1-1.58-.06 3.9 3.9 0 0 1-3.05-2.82c-.14-.52-.17-1.06-.2-1.6l-.04-.4-.2-2.66zm16.89 1.63h-.02c-3.18.37-6.81 1.68-8.87 4.26a8.2 8.2 0 0 0-1.81 5.94q.08.69.31 1.35l-.06.16c-.26.66-.87 2.19-.66 2.64q.1.2.32.26.08.03.17.03c.18-.03.34-.06.45-.22.12-.18.24-.59.34-.94l.13-.43q.2-.56.43-1.1l.05-.14c2.63.01 5.43-.81 7.33-2.69 2.13-2.1 2.67-5.48 2.67-8.34 0-.23-.02-.5-.18-.67q-.16-.14-.4-.13zm-6.65-8.3.31-.02a5 5 0 0 1 3.37 1.45c1.2 1.2 1.44 2.47 1.45 4.1H8.08a5.4 5.4 0 0 1 1.1-3.78 5 5 0 0 1 3.5-1.76"/>
      <path d="M18.9 13.08h-.05c-2.7.36-5.94 1.67-7.63 3.88a7.3 7.3 0 0 0-1.5 4.86 18 18 0 0 1 5.15-5.7l.2-.15c.26-.2.55-.4.84-.5.2-.05.33 0 .51.1.13.14.23.3.21.5-.02.22-.24.38-.4.5l-.52.36q-.4.28-.79.58a17 17 0 0 0-4.24 4.96c2.13-.04 4.48-.8 5.99-2.36 1.63-1.68 2.24-4.64 2.26-6.94l-.01-.06zm.4-1.23h.02l.2-.02c.14 0 .3.03.4.13.16.18.18.44.18.67 0 2.86-.54 6.24-2.67 8.34-1.9 1.88-4.7 2.7-7.33 2.7l-.05.12-.43 1.1-.13.44c-.1.35-.22.76-.34.94-.1.16-.27.2-.45.22l-.17-.03a.5.5 0 0 1-.32-.26c-.21-.45.4-1.98.66-2.64l.06-.16a6 6 0 0 1-.31-1.35 8.2 8.2 0 0 1 1.8-5.94c2.07-2.58 5.7-3.9 8.88-4.26"/>
      <path d="M19.32 11.85h-.02c-3.18.37-6.81 1.68-8.87 4.26a8.2 8.2 0 0 0-1.81 5.94q.08.69.31 1.35l-.06.16c-.26.66-.87 2.19-.66 2.64q.1.2.32.26.08.03.17.03c.18-.03.34-.06.45-.22.12-.18.24-.59.34-.94l.13-.43q.2-.56.43-1.1l.05-.14c2.63.01 5.43-.81 7.33-2.69 2.13-2.1 2.67-5.48 2.67-8.34 0-.23-.02-.5-.18-.67q-.16-.14-.4-.13zm-.47 1.23h.05l.01.01v.02q.02.03.02.07c-.02 2.3-.63 5.25-2.26 6.93-1.51 1.56-3.85 2.32-6 2.36a17 17 0 0 1 5.04-5.53l.52-.37c.16-.12.38-.28.4-.5.03-.2-.08-.36-.2-.5-.18-.1-.31-.15-.52-.09-.29.08-.57.3-.84.49l-.2.15a18 18 0 0 0-5.15 5.7 7.3 7.3 0 0 1 1.5-4.85c1.7-2.22 4.93-3.52 7.63-3.9zm41.49 6.55a4.09 4.09 0 1 0-8.17.28 4.09 4.09 0 0 0 8.17-.28m-4.09-2.72c.66.03 1.2.19 1.7.63.6.53.93 1.3.97 2.09s-.2 1.6-.74 2.18c-.5.54-1.11.78-1.83.82-.66 0-1.2-.1-1.72-.54-.6-.5-.95-1.25-1.01-2.03-.07-.81.14-1.65.68-2.27a2.6 2.6 0 0 1 1.95-.88m-7.27 2.38a4.09 4.09 0 1 0-8.12.97 4.09 4.09 0 0 0 8.12-.97m-4.42-2.35c.65-.05 1.24.02 1.8.4a2.8 2.8 0 0 1 1.14 1.82c.14.84 0 1.73-.5 2.43-.44.61-.99.91-1.72 1.03-.67.04-1.26 0-1.83-.4a2.8 2.8 0 0 1-1.13-1.82c-.14-.81.02-1.75.5-2.42q.66-.88 1.74-1.03zm24.35-1.26h-.06a4 4 0 0 0-2.6 1.44 4.3 4.3 0 0 0-.84 3.29 4 4 0 0 0 1.45 2.6c.97.75 2.2.94 3.38.77.7-.09 1.73-.42 2.17-1a.8.8 0 0 0 .16-.56.5.5 0 0 0-.2-.36.6.6 0 0 0-.48-.08 2 2 0 0 0-.6.3l-.13.09c-.83.43-1.75.63-2.67.34a2.6 2.6 0 0 1-1.5-1.3 4 4 0 0 1-.3-1h3.93l.52.02c.47.01.96.03 1.37-.04a.6.6 0 0 0 .32-.17c.2-.19.23-.46.22-.71a3.77 3.77 0 0 0-4.14-3.63m.13 1.23a2.44 2.44 0 0 1 2.7 2.13H69.5l-2.76.01c.12-.42.27-.81.54-1.17a2.5 2.5 0 0 1 1.75-.97"/>
      <path d="M47.03 12.76c1.48-.04 2.96 0 4.44 0 .84 0 1.91-.08 2.73 0q.19.02.33.14a.7.7 0 0 1 .24.5.7.7 0 0 1-.22.49.6.6 0 0 1-.33.14c-.34.05-.72.02-1.06.02h-1.83v6.8c0 .56.07 1.81-.01 2.3a1 1 0 0 1-.19.42.6.6 0 0 1-.44.2.6.6 0 0 1-.47-.17 1 1 0 0 1-.22-.57c-.04-.38 0-.78 0-1.16v-7.82c-.6 0-2.71.1-3.14-.1a.6.6 0 0 1-.32-.35.6.6 0 0 1 .06-.52c.1-.18.24-.26.44-.33zm-9.64 2.92q.82-.06 1.61.15c.57.15 1.42.48 1.72 1.01a.6.6 0 0 1 .06.49.7.7 0 0 1-.37.36c-.46.18-1.04-.45-1.48-.62a3 3 0 0 0-2.24.07 2.6 2.6 0 0 0-1.32 1.5 3.4 3.4 0 0 0 .05 2.47c.32.68.9 1.16 1.61 1.4.8.3 1.64.14 2.39-.22.23-.13.44-.3.7-.35a.5.5 0 0 1 .4.07c.14.1.26.3.27.47a.6.6 0 0 1-.14.44c-.44.54-1.42.81-2.08.9a4.4 4.4 0 0 1-3.28-.83 4 4 0 0 1-1.53-2.78 4.2 4.2 0 0 1 .9-3.04 4 4 0 0 1 2.73-1.49m24.63-2.06h.07q.31-.01.55.2c.35.36.21 1.57.2 2.07.48 0 1.62-.15 1.97.17q.19.18.18.44.01.24-.16.43c-.33.3-1.52.19-1.99.18 0 1-.13 4.08.18 4.84.5 1.22 1.58.14 2.2.43.12.06.23.2.28.33.07.2 0 .37-.07.55l-.04.04c-.38.39-1.07.48-1.59.49-.59 0-1.15-.1-1.6-.53a2.4 2.4 0 0 1-.6-1.2c-.15-.66-.09-1.4-.09-2.09v-2.85l-1.08-.01-.17-.13a.7.7 0 0 1-.21-.5q-.01-.25.16-.43c.3-.27.93-.17 1.3-.16 0-.52-.11-1.46.08-1.91.1-.2.23-.28.43-.36"/>
      <path d="M33.42 13.43a94 94 0 0 0-5.25 0l-.35.02s-.42.1-.56.29a1 1 0 0 0-.14.43q-.16 1.18-.24 2.38l-.11 1.26-.4 4.04-.05.42a7 7 0 0 0-.1 1.59q.05.25.26.38t.47.16c.34 0 .86 0 1.43.02 1.18 0 4.2.02 4.9 0q.21-.01.42-.08.27-.1.39-.37a.7.7 0 0 0-.03-.55.6.6 0 0 0-.37-.33h-6.05q.15-1.33.27-2.68l.07-.72v-.08h.19c.62.02 3.62.04 4-.02a.6.6 0 0 0 .38-.16.7.7 0 0 0 .17-.5.7.7 0 0 0-.2-.44.5.5 0 0 0-.28-.13c-.36-.05-3.03-.04-3.7-.03h-.43l.3-3.62h3.28l.51.01q.66.04 1.27-.03a.6.6 0 0 0 .36-.17q.2-.21.19-.5a.65.65 0 0 0-.6-.6"/>
    </symbol>


      <symbol id="icon-youtube" viewBox="0 0 32 32">
      <path d="M28.8 9.6a3.3 3.3 0 0 0-2.36-2.35C24.35 6.68 16 6.67 16 6.67s-8.35-.01-10.44.54a3.4 3.4 0 0 0-2.35 2.37C2.65 11.66 2.65 16 2.65 16s0 4.35.54 6.41a3.3 3.3 0 0 0 2.35 2.36c2.11.57 10.44.58 10.44.58s8.35.01 10.44-.54a3.4 3.4 0 0 0 2.36-2.35c.55-2.08.55-6.41.55-6.41s.03-4.35-.54-6.44zM13.32 20v-8l6.95 4.01z"/>
    </symbol>
    <symbol id="icon-linkedin" viewBox="0 0 32 32">
      <path d="M25.75 4H6.25A2.26 2.26 0 0 0 4 6.25v19.5A2.26 2.26 0 0 0 6.25 28h19.5A2.26 2.26 0 0 0 28 25.75V6.25A2.26 2.26 0 0 0 25.75 4M13 23.5h-3V13h3zm-1.5-12a1.5 1.5 0 1 1 0-3 1.5 1.5 0 0 1 0 3m12 12h-3v-6a1.5 1.5 0 1 0-3 0v6h-3V13h3v1.86c.62-.85 1.57-1.86 2.63-1.86 1.86 0 3.37 1.68 3.37 3.75z"/>
    </symbol>
    <symbol id="icon-instagram" viewBox="0 0 32 32">
      <path d="M16 6.16c3.2 0 3.58.01 4.84.07a7 7 0 0 1 2.23.41c.56.22.96.48 1.38.9s.68.82.9 1.38c.16.42.36 1.06.41 2.22.06 1.27.07 1.65.07 4.85s-.01 3.59-.07 4.85a7 7 0 0 1-.41 2.22c-.22.56-.48.97-.9 1.38a4 4 0 0 1-1.37.9 7 7 0 0 1-2.23.41c-1.27.06-1.65.07-4.85.07s-3.58-.01-4.85-.07a7 7 0 0 1-2.22-.4 4 4 0 0 1-1.38-.9 4 4 0 0 1-.9-1.38 7 7 0 0 1-.41-2.23c-.06-1.26-.07-1.64-.07-4.84s.01-3.59.07-4.85c.05-1.17.25-1.8.41-2.23a4 4 0 0 1 2.27-2.28 7 7 0 0 1 2.23-.4c1.26-.06 1.64-.08 4.85-.08M16 4c-3.26 0-3.67.02-4.95.07a9 9 0 0 0-2.9.56c-.8.3-1.47.72-2.13 1.39a6 6 0 0 0-1.4 2.12 9 9 0 0 0-.55 2.91C4.01 12.34 4 12.75 4 16s.01 3.66.07 4.94.26 2.16.56 2.91c.3.8.72 1.47 1.39 2.13a6 6 0 0 0 2.12 1.38c.76.3 1.63.5 2.9.56 1.29.06 1.7.07 4.95.07s3.67-.01 4.95-.07a9 9 0 0 0 2.9-.56 6 6 0 0 0 3.5-3.5 8 8 0 0 0 .57-2.91c.06-1.28.07-1.69.07-4.95s-.01-3.66-.07-4.94a9 9 0 0 0-.55-2.91c-.3-.8-.7-1.47-1.38-2.14a6 6 0 0 0-2.12-1.38 9 9 0 0 0-2.91-.56C19.66 4.01 19.25 4 16 4"/>
      <path d="M16 9.84a6.16 6.16 0 1 0 0 12.33 6.16 6.16 0 0 0 0-12.33M16 20a4 4 0 1 1 0-8 4 4 0 0 1 0 8m7.84-10.4a1.44 1.44 0 1 1-2.88 0 1.44 1.44 0 0 1 2.88 0"/>
    </symbol>
  

    <symbol id="icon-close" viewBox="0 0 32 32">
      <path d="m21.6 8.46-5.67 5.65-5.65-5.65-1.89 1.88L14.05 16l-5.66 5.66 1.89 1.88 5.65-5.65 5.66 5.65 1.89-1.88L17.82 16l5.66-5.66z"/>
    </symbol>
    <symbol id="icon-star" viewBox="0 0 32 32">
      <path d="M8.69 19.1 6.7 27.7A1.33 1.33 0 0 0 8 29.34q.41 0 .75-.23L16 24.27l7.26 4.84a1.33 1.33 0 0 0 2.02-1.48l-2.44-8.53 6.05-5.44a1.33 1.33 0 0 0-.78-2.32l-7.6-.6-3.3-7.29a1.33 1.33 0 0 0-1.93-.57q-.33.22-.5.57l-3.28 7.28-7.6.6a1.33 1.33 0 0 0-.83 2.3zm3.8-5.77a1.3 1.3 0 0 0 1.11-.78L16 7.24l2.4 5.3q.15.34.45.55s.42.22.66.24l5.3.42-4.36 3.92c-.38.34-.53.87-.4 1.36l1.68 5.85-4.99-3.32a1.3 1.3 0 0 0-1.47 0l-5.2 3.47 1.4-6.06a1.3 1.3 0 0 0-.38-1.26l-4.05-3.95z"/>
    </symbol>
    <symbol id="icon-star-filled" viewBox="0 0 32 32">
      <path d="M8.69 19.1 6.7 27.7A1.33 1.33 0 0 0 8 29.34q.41 0 .75-.23L16 24.27l7.26 4.84a1.33 1.33 0 0 0 2.02-1.48l-2.44-8.53 6.05-5.44a1.33 1.33 0 0 0-.78-2.32l-7.6-.6-3.3-7.29a1.33 1.33 0 0 0-1.93-.57q-.33.22-.5.57l-3.28 7.28-7.6.6a1.33 1.33 0 0 0-.83 2.3z"/>
    </symbol>
    <symbol id="icon-burger" viewBox="0 0 32 32">
      <path d="M5.33 8h21.34v2.67H5.33zm0 6.67h21.34v2.66H5.33zm0 6.66h21.34V24H5.33z"/>
    </symbol>
  </defs>
</svg>


<svg aria-hidden="true" style="position: absolute; width: 0; height: 0; overflow: hidden;" version="1.1" xmlns="http://www.w3.org/2000/svg" xmlns:xlink="http://www.w3.org/1999/xlink">
<defs>
<symbol id="icon-youtube" viewBox="0 0 32 32">
<path d="M28.791 9.604c-0.152-0.563-0.449-1.077-0.861-1.49s-0.925-0.711-1.488-0.864c-2.088-0.573-10.441-0.583-10.441-0.583s-8.352-0.009-10.441 0.539c-0.563 0.16-1.075 0.462-1.487 0.878s-0.711 0.929-0.867 1.493c-0.551 2.088-0.556 6.419-0.556 6.419s-0.005 4.352 0.541 6.419c0.307 1.143 1.207 2.045 2.351 2.353 2.109 0.573 10.44 0.583 10.44 0.583s8.353 0.009 10.441-0.537c0.563-0.153 1.077-0.45 1.49-0.862s0.712-0.925 0.866-1.488c0.552-2.087 0.556-6.416 0.556-6.416s0.027-4.353-0.543-6.441zM13.328 20.007l0.007-8 6.943 4.007-6.949 3.993z"></path>
</symbol>
<symbol id="icon-linkedin" viewBox="0 0 32 32">
<path d="M25.75 4h-19.5c-1.237 0-2.25 1.013-2.25 2.25v19.5c0 1.238 1.013 2.25 2.25 2.25h19.5c1.238 0 2.25-1.012 2.25-2.25v-19.5c0-1.237-1.012-2.25-2.25-2.25zM13 23.5h-3v-10.5h3v10.5zM11.5 11.5c-0.829 0-1.5-0.671-1.5-1.5s0.671-1.5 1.5-1.5c0.829 0 1.5 0.671 1.5 1.5s-0.671 1.5-1.5 1.5zM23.5 23.5h-3v-6c0-0.829-0.671-1.5-1.5-1.5s-1.5 0.671-1.5 1.5v6h-3v-10.5h3v1.861c0.619-0.848 1.565-1.861 2.625-1.861 1.866 0 3.375 1.678 3.375 3.75v6.75z"></path>
</symbol>
<symbol id="icon-instagram" viewBox="0 0 32 32">
<path d="M15.998 6.161c3.206 0 3.585 0.014 4.846 0.071 1.172 0.052 1.804 0.248 2.227 0.412 0.558 0.216 0.961 0.478 1.378 0.895 0.422 0.422 0.679 0.82 0.9 1.378 0.164 0.422 0.361 1.059 0.412 2.226 0.056 1.266 0.070 1.645 0.070 4.847s-0.014 3.585-0.070 4.847c-0.052 1.172-0.248 1.804-0.412 2.227-0.216 0.558-0.478 0.961-0.895 1.378-0.422 0.422-0.82 0.679-1.378 0.9-0.422 0.164-1.060 0.361-2.227 0.412-1.266 0.056-1.645 0.070-4.847 0.070s-3.585-0.014-4.847-0.070c-1.172-0.052-1.804-0.248-2.226-0.412-0.558-0.216-0.961-0.478-1.378-0.895-0.422-0.422-0.679-0.82-0.9-1.378-0.164-0.422-0.361-1.060-0.412-2.227-0.056-1.266-0.071-1.645-0.071-4.847s0.014-3.585 0.071-4.847c0.052-1.172 0.248-1.804 0.412-2.226 0.216-0.558 0.478-0.961 0.895-1.378 0.422-0.422 0.82-0.679 1.378-0.9 0.422-0.164 1.059-0.361 2.226-0.412 1.261-0.056 1.641-0.071 4.847-0.071h0.001zM15.998 4.001c-3.258 0-3.665 0.014-4.945 0.071-1.275 0.056-2.151 0.262-2.91 0.558-0.792 0.309-1.462 0.717-2.127 1.387-0.67 0.666-1.078 1.336-1.387 2.123-0.295 0.764-0.502 1.636-0.558 2.91-0.056 1.285-0.071 1.692-0.071 4.949s0.014 3.665 0.071 4.945c0.056 1.275 0.262 2.151 0.558 2.91 0.31 0.792 0.717 1.462 1.387 2.127 0.665 0.665 1.336 1.078 2.123 1.383 0.764 0.296 1.636 0.502 2.91 0.558 1.279 0.056 1.687 0.070 4.945 0.070s3.666-0.014 4.945-0.070c1.275-0.056 2.151-0.262 2.91-0.558 0.787-0.304 1.458-0.717 2.123-1.383s1.078-1.336 1.383-2.123c0.296-0.764 0.502-1.636 0.558-2.91 0.056-1.279 0.070-1.687 0.070-4.945s-0.014-3.665-0.070-4.945c-0.056-1.275-0.262-2.151-0.558-2.91-0.295-0.797-0.703-1.467-1.373-2.133-0.665-0.665-1.336-1.078-2.123-1.383-0.764-0.295-1.636-0.502-2.91-0.558-1.284-0.061-1.692-0.075-4.949-0.075l-0.001 0.001z"></path>
<path d="M15.997 9.836c-3.402 0-6.163 2.76-6.163 6.163s2.76 6.163 6.163 6.163c3.403 0 6.163-2.76 6.163-6.163s-2.76-6.163-6.163-6.163zM15.997 19.997c-2.208 0-3.998-1.79-3.998-3.998s1.79-3.998 3.998-3.998c2.208 0 3.998 1.79 3.998 3.998s-1.79 3.998-3.998 3.998z"></path>
<path d="M23.842 9.592c0 0.795-0.644 1.439-1.439 1.439s-1.439-0.644-1.439-1.439c0-0.795 0.644-1.439 1.439-1.439s1.439 0.644 1.439 1.439z"></path>
</symbol>
</defs>
</svg> -->





<svg xmlns="http://www.w3.org/2000/svg" aria-hidden="true" overflow="hidden" style="position:absolute;width:0;height:0">
  <defs>
    <symbol id="icon-youtube" viewBox="0 0 32 32">
      <path d="M28.8 9.6a3.3 3.3 0 0 0-2.36-2.35C24.35 6.68 16 6.67 16 6.67s-8.35-.01-10.44.54a3.4 3.4 0 0 0-2.35 2.37C2.65 11.66 2.65 16 2.65 16s0 4.35.54 6.41a3.3 3.3 0 0 0 2.35 2.36c2.11.57 10.44.58 10.44.58s8.35.01 10.44-.54a3.4 3.4 0 0 0 2.36-2.35c.55-2.08.55-6.41.55-6.41s.03-4.35-.54-6.44zM13.32 20v-8l6.95 4.01z"/>
    </symbol>
    <symbol id="icon-linkedin" viewBox="0 0 32 32">
      <path d="M25.75 4H6.25A2.26 2.26 0 0 0 4 6.25v19.5A2.26 2.26 0 0 0 6.25 28h19.5A2.26 2.26 0 0 0 28 25.75V6.25A2.26 2.26 0 0 0 25.75 4M13 23.5h-3V13h3zm-1.5-12a1.5 1.5 0 1 1 0-3 1.5 1.5 0 0 1 0 3m12 12h-3v-6a1.5 1.5 0 1 0-3 0v6h-3V13h3v1.86c.62-.85 1.57-1.86 2.63-1.86 1.86 0 3.37 1.68 3.37 3.75z"/>
    </symbol>
    <symbol id="icon-instagram" viewBox="0 0 32 32">
      <path d="M16 6.16c3.2 0 3.58.01 4.84.07a7 7 0 0 1 2.23.41c.56.22.96.48 1.38.9s.68.82.9 1.38c.16.42.36 1.06.41 2.22.06 1.27.07 1.65.07 4.85s-.01 3.59-.07 4.85a7 7 0 0 1-.41 2.22c-.22.56-.48.97-.9 1.38-.42.42-.82.68-1.37.9a7 7 0 0 1-2.23.41c-1.27.06-1.65.07-4.85.07s-3.58-.01-4.85-.07a7 7 0 0 1-2.22-.4 4 4 0 0 1-1.38-.9 4 4 0 0 1-.9-1.38 7 7 0 0 1-.41-2.23c-.06-1.26-.07-1.64-.07-4.84s.01-3.59.07-4.85c.05-1.17.25-1.8.41-2.23.22-.56.48-.96.9-1.38s.82-.67 1.37-.9a7 7 0 0 1 2.23-.4c1.26-.06 1.64-.08 4.85-.08M16 4c-3.26 0-3.67.02-4.95.07a9 9 0 0 0-2.9.56c-.8.3-1.47.72-2.13 1.39a6 6 0 0 0-1.4 2.12 9 9 0 0 0-.55 2.91C4.01 12.34 4 12.75 4 16s.01 3.66.07 4.94.26 2.16.56 2.91c.3.8.72 1.47 1.39 2.13a6 6 0 0 0 2.12 1.38c.76.3 1.63.5 2.9.56 1.29.06 1.7.07 4.95.07s3.67-.01 4.95-.07a9 9 0 0 0 2.9-.56 5.99 5.99 0 0 0 3.5-3.5c.31-.77.52-1.64.57-2.91.06-1.28.07-1.69.07-4.95s-.01-3.66-.07-4.94a9 9 0 0 0-.55-2.91c-.3-.8-.7-1.47-1.38-2.14a6 6 0 0 0-2.12-1.38 9 9 0 0 0-2.91-.56C19.66 4.01 19.25 4 16 4z"/>
      <path d="M16 9.84a6.16 6.16 0 1 0 0 12.33 6.16 6.16 0 0 0 0-12.33M16 20a4 4 0 1 1 0-8 4 4 0 0 1 0 8"/>
      <path d="M23.84 9.6a1.44 1.44 0 1 1-2.88 0 1.44 1.44 0 0 1 2.88 0"/>
    </symbol>
    <symbol id="icon-close" viewBox="0 0 32 32">
      <path d="m21.6 8.46-5.67 5.65-5.65-5.65-1.89 1.88L14.05 16l-5.66 5.66 1.89 1.88 5.65-5.65 5.66 5.65 1.89-1.88L17.82 16l5.66-5.66z"/>
    </symbol>
    <symbol id="icon-star" viewBox="0 0 32 32">
      <path d="M8.69 19.1 6.7 27.7A1.33 1.33 0 0 0 8 29.34q.41 0 .75-.23L16 24.27l7.26 4.84a1.33 1.33 0 0 0 2.02-1.48l-2.44-8.53 6.05-5.44a1.33 1.33 0 0 0-.78-2.32l-7.6-.6-3.3-7.29a1.33 1.33 0 0 0-1.93-.57q-.33.22-.5.57l-3.28 7.28-7.6.6a1.33 1.33 0 0 0-.83 2.3zm3.8-5.77a1.3 1.3 0 0 0 1.11-.78L16 7.24l2.4 5.3q.15.34.45.55s.42.22.66.24l5.3.42-4.36 3.92c-.38.34-.53.87-.4 1.36l1.68 5.85-4.99-3.32a1.3 1.3 0 0 0-1.47 0l-5.2 3.47 1.4-6.06a1.3 1.3 0 0 0-.38-1.26l-4.05-3.95z"/>
    </symbol>
    <symbol id="icon-star-filled" viewBox="0 0 32 32">
      <path d="M8.69 19.1 6.7 27.7A1.33 1.33 0 0 0 8 29.34q.41 0 .75-.23L16 24.27l7.26 4.84a1.33 1.33 0 0 0 2.02-1.48l-2.44-8.53 6.05-5.44a1.33 1.33 0 0 0-.78-2.32l-7.6-.6-3.3-7.29a1.33 1.33 0 0 0-1.93-.57q-.33.22-.5.57l-3.28 7.28-7.6.6a1.33 1.33 0 0 0-.83 2.3z"/>
    </symbol>
    <symbol id="icon-burger" viewBox="0 0 32 32">
      <path d="M5.33 8h21.34v2.67H5.33zm0 6.67h21.34v2.66H5.33zm0 6.66h21.34V24H5.33z"/>
    </symbol>
  </defs>
</svg>
